<?xml version="1.0" standalone="no"?>
<!DOCTYPE svg PUBLIC "-//W3C//DTD SVG 20010904//EN" "http://www.w3.org/TR/2001/REC-SVG-20010904/DTD/svg10.dtd">
<svg version="1.0" xmlns="http://www.w3.org/2000/svg"
     width="512pt" height="512pt" viewBox="0 0 512 512"
     preserveAspectRatio="xMidYMid meet">
  <g transform="translate(0,512) scale(0.1,-0.1)" fill="#000000">
    <!-- Tow Truck Body -->
    <path d="M2000 4000 c-150 -31 -290 -120 -380 -242 l-40 -54 -85 -17 c-47 -9
    -128 -31 -180 -48 -52 -17 -97 -29 -100 -26 -3 3 -27 39 -53 80 -74 118
    -183 217 -307 280 -135 68 -135 68 -270 68 -135 0 -135 0 -270 -68 -124 -63
    -233 -162 -307 -280 -68 -108 -98 -203 -98 -313 0 -110 30 -205 98 -313 74
    -118 183 -217 307 -280 135 -68 135 -68 270 -68 135 0 135 0 270 68 124 63
    233 162 307 280 26 41 50 77 53 80 3 3 48 -9 100 -26 52 -17 133 -39 180
    -48 l85 -17 40 -54 c90 -122 230 -211 380 -242 58 -12 162 -12 220 0 150 31
    290 120 380 242 l40 54 85 17 c47 9 128 31 180 48 52 17 97 29 100 26 3 -3
    27 -39 53 -80 74 -118 183 -217 307 -280 135 -68 135 -68 270 -68 135 0 135
    0 270 68 124 63 233 162 307 280 68 108 98 203 98 313 0 110 -30 205 -98
    313 -74 118 -183 217 -307 280 -135 68 -135 68 -270 68 -135 0 -135 0 -270
    -68 -124 -63 -233 -162 -307 -280 -26 -41 -50 -77 -53 -80 -3 -3 -48 9
    -100 26 -52 17 -133 39 -180 48 l-85 17 -40 54 c-90 122 -230 211 -380 242
    -58 12 -162 12 -220 0z"/>
    <!-- Wheels -->
    <circle cx="800" cy="3600" r="200"/>
    <circle cx="2400" cy="3600" r="200"/>
  </g>
</svg> 